# Blender v2.91.2 OBJ File: 'tracks1.blend'
# www.blender.org
o Plane.006_Plane.007
v -3.000000 0.000000 -0.000000
v 3.000000 0.000000 0.000000
v -3.000000 0.200000 -0.000000
v 3.000000 0.200000 0.000000
v 3.200000 0.000000 0.000000
v 3.200000 0.200000 0.000000
v -3.200001 0.000000 -0.000000
v -3.200001 0.200000 -0.000000
v -3.000000 0.500000 -0.000000
v 3.000000 0.500000 0.000000
v 3.200000 0.500000 0.000000
v -3.200001 0.500000 -0.000000
v -3.190983 0.000000 0.587785
v 1.663118 0.000000 4.114497
v -3.190983 0.200000 0.587785
v 1.663118 0.200000 4.114497
v 1.824922 0.000000 4.232054
v 1.824922 0.200000 4.232054
v -3.352787 0.000000 0.470228
v -3.352787 0.200000 0.470228
v -3.190983 0.500000 0.587785
v 1.663118 0.500000 4.114497
v 1.824922 0.500000 4.232054
v -3.352787 0.500000 0.470228
v -3.690983 0.000000 0.951056
v -1.836881 0.000000 6.657395
v -3.690983 0.200000 0.951056
v -1.836881 0.200000 6.657395
v -1.775078 0.000000 6.847607
v -1.775078 0.200000 6.847607
v -3.752786 0.000000 0.760845
v -3.752786 0.200000 0.760845
v -3.690983 0.500000 0.951056
v -1.836881 0.500000 6.657395
v -1.775078 0.500000 6.847607
v -3.752786 0.500000 0.760845
v -4.309016 0.000000 0.951056
v -6.163119 0.000000 6.657395
v -4.309016 0.200000 0.951056
v -6.163119 0.200000 6.657395
v -6.224923 0.000000 6.847606
v -6.224923 0.200000 6.847606
v -4.247213 0.000000 0.760845
v -4.247213 0.200000 0.760845
v -4.309016 0.500000 0.951056
v -6.163119 0.500000 6.657395
v -6.224923 0.500000 6.847606
v -4.247213 0.500000 0.760845
v -4.809016 0.000000 0.587785
v -9.663119 0.000000 4.114497
v -4.809016 0.200000 0.587785
v -9.663119 0.200000 4.114497
v -9.824923 0.000000 4.232053
v -9.824923 0.200000 4.232053
v -4.647213 0.000000 0.470228
v -4.647213 0.200000 0.470228
v -4.809016 0.500000 0.587785
v -9.663119 0.500000 4.114497
v -9.824923 0.500000 4.232053
v -4.647213 0.500000 0.470228
v -4.999999 0.000000 0.000001
v -11.000001 0.000000 -0.000000
v -4.999999 0.200000 0.000001
v -11.000001 0.200000 -0.000000
v -11.200000 0.000000 -0.000000
v -11.200000 0.200000 -0.000000
v -4.800000 0.000000 0.000001
v -4.800000 0.200000 0.000001
v -4.999999 0.500000 0.000001
v -11.000001 0.500000 -0.000000
v -11.200000 0.500000 -0.000000
v -4.800000 0.500000 0.000001
v -4.809017 0.000000 -0.587784
v -9.663120 0.000000 -4.114498
v -4.809017 0.200000 -0.587784
v -9.663120 0.200000 -4.114498
v -9.824923 0.000000 -4.232054
v -9.824923 0.200000 -4.232054
v -4.647214 0.000000 -0.470228
v -4.647214 0.200000 -0.470228
v -4.809017 0.500000 -0.587784
v -9.663120 0.500000 -4.114498
v -9.824923 0.500000 -4.232054
v -4.647214 0.500000 -0.470228
v -4.309018 0.000000 -0.951055
v -6.163119 0.000000 -6.657397
v -4.309018 0.200000 -0.951055
v -6.163119 0.200000 -6.657397
v -6.224922 0.000000 -6.847607
v -6.224922 0.200000 -6.847607
v -4.247214 0.000000 -0.760845
v -4.247214 0.200000 -0.760845
v -4.309018 0.500000 -0.951055
v -6.163119 0.500000 -6.657397
v -6.224922 0.500000 -6.847607
v -4.247214 0.500000 -0.760845
v -3.690984 0.000000 -0.951056
v -1.836881 0.000000 -6.657396
v -3.690984 0.200000 -0.951056
v -1.836881 0.200000 -6.657396
v -1.775077 0.000000 -6.847607
v -1.775077 0.200000 -6.847607
v -3.752787 0.000000 -0.760846
v -3.752787 0.200000 -0.760846
v -3.690984 0.500000 -0.951056
v -1.836881 0.500000 -6.657396
v -1.775077 0.500000 -6.847607
v -3.752787 0.500000 -0.760846
v -3.190984 0.000000 -0.587785
v 1.663120 0.000000 -4.114497
v -3.190984 0.200000 -0.587785
v 1.663120 0.200000 -4.114497
v 1.824923 0.000000 -4.232054
v 1.824923 0.200000 -4.232054
v -3.352787 0.000000 -0.470229
v -3.352787 0.200000 -0.470229
v -3.190984 0.500000 -0.587785
v 1.663120 0.500000 -4.114497
v 1.824923 0.500000 -4.232054
v -3.352787 0.500000 -0.470229
v -3.000001 0.000000 -0.000001
v 3.000001 0.000000 0.000000
v -3.000001 0.200000 -0.000001
v 3.000001 0.200000 0.000000
v 3.200000 0.000000 0.000000
v 3.200000 0.200000 0.000000
v -3.200000 0.000000 -0.000001
v -3.200000 0.200000 -0.000001
v -3.000001 0.500000 -0.000001
v 3.000001 0.500000 0.000000
v 3.200000 0.500000 0.000000
v -3.200000 0.500000 -0.000001
vn 0.0000 0.0000 -1.0000
vn 0.5878 0.0000 0.8090
vn -0.5878 0.0000 -0.8090
vn 0.0000 -1.0000 0.0000
vn 0.0000 1.0000 0.0000
vn 0.9511 0.0000 0.3090
vn -0.9511 0.0000 -0.3090
vn 0.0000 0.0000 1.0000
vn 0.5878 0.0000 -0.8090
vn -0.5878 0.0000 0.8090
vn 0.9511 0.0000 -0.3090
vn -0.9511 0.0000 0.3090
s off
f 3//1 2//1 1//1
f 6//1 2//1 4//1
f 10//1 6//1 4//1
f 7//1 3//1 1//1
f 12//1 3//1 8//1
f 18//2 29//2 17//2
f 16//3 34//3 22//3
f 19//3 32//3 20//3
f 14//4 25//4 13//4
f 22//5 35//5 23//5
f 11//6 18//6 6//6
f 11//5 22//5 23//5
f 2//4 13//4 1//4
f 7//7 20//7 8//7
f 4//7 22//7 10//7
f 6//6 17//6 5//6
f 9//5 24//5 21//5
f 3//5 16//5 4//5
f 1//4 19//4 7//4
f 9//6 15//6 3//6
f 2//4 17//4 14//4
f 8//7 24//7 12//7
f 28//1 46//1 34//1
f 31//1 44//1 32//1
f 26//4 37//4 25//4
f 35//5 46//5 47//5
f 35//8 42//8 30//8
f 21//5 36//5 33//5
f 16//5 27//5 28//5
f 13//4 31//4 19//4
f 21//2 27//2 15//2
f 17//4 26//4 14//4
f 20//3 36//3 24//3
f 23//2 30//2 18//2
f 40//9 58//9 46//9
f 43//9 56//9 44//9
f 38//4 49//4 37//4
f 47//5 58//5 59//5
f 47//10 54//10 42//10
f 30//8 41//8 29//8
f 33//5 48//5 45//5
f 27//5 40//5 28//5
f 25//4 43//4 31//4
f 33//8 39//8 27//8
f 29//4 38//4 26//4
f 32//1 48//1 36//1
f 52//11 70//11 58//11
f 55//11 68//11 56//11
f 50//4 61//4 49//4
f 59//5 70//5 71//5
f 59//12 66//12 54//12
f 42//10 53//10 41//10
f 48//5 57//5 45//5
f 40//5 51//5 52//5
f 43//4 49//4 55//4
f 45//10 51//10 39//10
f 41//4 50//4 38//4
f 44//9 60//9 48//9
f 67//6 80//6 68//6
f 62//4 73//4 61//4
f 70//5 83//5 71//5
f 71//7 78//7 66//7
f 68//6 84//6 72//6
f 54//12 65//12 53//12
f 60//5 69//5 57//5
f 52//5 63//5 64//5
f 55//4 61//4 67//4
f 57//12 63//12 51//12
f 53//4 62//4 50//4
f 56//11 72//11 60//11
f 74//4 85//4 73//4
f 83//5 94//5 95//5
f 83//3 90//3 78//3
f 80//2 96//2 84//2
f 77//4 86//4 74//4
f 64//6 82//6 70//6
f 66//7 77//7 65//7
f 72//5 81//5 69//5
f 64//5 75//5 76//5
f 67//4 73//4 79//4
f 69//7 75//7 63//7
f 62//4 77//4 74//4
f 94//5 107//5 95//5
f 95//1 102//1 90//1
f 92//8 108//8 96//8
f 89//4 98//4 86//4
f 93//1 99//1 87//1
f 79//2 92//2 80//2
f 76//2 94//2 82//2
f 78//3 89//3 77//3
f 84//5 93//5 81//5
f 76//5 87//5 88//5
f 79//4 85//4 91//4
f 81//3 87//3 75//3
f 107//9 114//9 102//9
f 104//10 120//10 108//10
f 101//4 110//4 98//4
f 105//9 111//9 99//9
f 97//4 115//4 103//4
f 86//4 97//4 85//4
f 91//8 104//8 92//8
f 88//8 106//8 94//8
f 90//1 101//1 89//1
f 96//5 105//5 93//5
f 88//5 99//5 100//5
f 91//4 97//4 103//4
f 116//12 132//12 120//12
f 113//4 122//4 110//4
f 117//11 123//11 111//11
f 109//4 127//4 115//4
f 111//5 124//5 112//5
f 107//5 118//5 119//5
f 98//4 109//4 97//4
f 103//10 116//10 104//10
f 100//10 118//10 106//10
f 102//9 113//9 101//9
f 105//5 120//5 117//5
f 100//5 111//5 112//5
f 122//8 123//8 121//8
f 122//8 126//8 124//8
f 126//8 130//8 124//8
f 123//8 127//8 121//8
f 123//8 132//8 128//8
f 119//11 126//11 114//11
f 118//5 131//5 119//5
f 110//4 121//4 109//4
f 115//12 128//12 116//12
f 112//12 130//12 118//12
f 114//11 125//11 113//11
f 117//5 132//5 129//5
f 3//1 4//1 2//1
f 6//1 5//1 2//1
f 10//1 11//1 6//1
f 7//1 8//1 3//1
f 12//1 9//1 3//1
f 18//2 30//2 29//2
f 16//3 28//3 34//3
f 19//3 31//3 32//3
f 14//4 26//4 25//4
f 22//5 34//5 35//5
f 11//6 23//6 18//6
f 11//5 10//5 22//5
f 2//4 14//4 13//4
f 7//7 19//7 20//7
f 4//7 16//7 22//7
f 6//6 18//6 17//6
f 9//5 12//5 24//5
f 3//5 15//5 16//5
f 1//4 13//4 19//4
f 9//6 21//6 15//6
f 2//4 5//4 17//4
f 8//7 20//7 24//7
f 28//1 40//1 46//1
f 31//1 43//1 44//1
f 26//4 38//4 37//4
f 35//5 34//5 46//5
f 35//8 47//8 42//8
f 21//5 24//5 36//5
f 16//5 15//5 27//5
f 13//4 25//4 31//4
f 21//2 33//2 27//2
f 17//4 29//4 26//4
f 20//3 32//3 36//3
f 23//2 35//2 30//2
f 40//9 52//9 58//9
f 43//9 55//9 56//9
f 38//4 50//4 49//4
f 47//5 46//5 58//5
f 47//10 59//10 54//10
f 30//8 42//8 41//8
f 33//5 36//5 48//5
f 27//5 39//5 40//5
f 25//4 37//4 43//4
f 33//8 45//8 39//8
f 29//4 41//4 38//4
f 32//1 44//1 48//1
f 52//11 64//11 70//11
f 55//11 67//11 68//11
f 50//4 62//4 61//4
f 59//5 58//5 70//5
f 59//12 71//12 66//12
f 42//10 54//10 53//10
f 48//5 60//5 57//5
f 40//5 39//5 51//5
f 43//4 37//4 49//4
f 45//10 57//10 51//10
f 41//4 53//4 50//4
f 44//9 56//9 60//9
f 67//6 79//6 80//6
f 62//4 74//4 73//4
f 70//5 82//5 83//5
f 71//7 83//7 78//7
f 68//6 80//6 84//6
f 54//12 66//12 65//12
f 60//5 72//5 69//5
f 52//5 51//5 63//5
f 55//4 49//4 61//4
f 57//12 69//12 63//12
f 53//4 65//4 62//4
f 56//11 68//11 72//11
f 74//4 86//4 85//4
f 83//5 82//5 94//5
f 83//3 95//3 90//3
f 80//2 92//2 96//2
f 77//4 89//4 86//4
f 64//6 76//6 82//6
f 66//7 78//7 77//7
f 72//5 84//5 81//5
f 64//5 63//5 75//5
f 67//4 61//4 73//4
f 69//7 81//7 75//7
f 62//4 65//4 77//4
f 94//5 106//5 107//5
f 95//1 107//1 102//1
f 92//8 104//8 108//8
f 89//4 101//4 98//4
f 93//1 105//1 99//1
f 79//2 91//2 92//2
f 76//2 88//2 94//2
f 78//3 90//3 89//3
f 84//5 96//5 93//5
f 76//5 75//5 87//5
f 79//4 73//4 85//4
f 81//3 93//3 87//3
f 107//9 119//9 114//9
f 104//10 116//10 120//10
f 101//4 113//4 110//4
f 105//9 117//9 111//9
f 97//4 109//4 115//4
f 86//4 98//4 97//4
f 91//8 103//8 104//8
f 88//8 100//8 106//8
f 90//1 102//1 101//1
f 96//5 108//5 105//5
f 88//5 87//5 99//5
f 91//4 85//4 97//4
f 116//12 128//12 132//12
f 113//4 125//4 122//4
f 117//11 129//11 123//11
f 109//4 121//4 127//4
f 111//5 123//5 124//5
f 107//5 106//5 118//5
f 98//4 110//4 109//4
f 103//10 115//10 116//10
f 100//10 112//10 118//10
f 102//9 114//9 113//9
f 105//5 108//5 120//5
f 100//5 99//5 111//5
f 122//8 124//8 123//8
f 122//8 125//8 126//8
f 126//8 131//8 130//8
f 123//8 128//8 127//8
f 123//8 129//8 132//8
f 119//11 131//11 126//11
f 118//5 130//5 131//5
f 110//4 122//4 121//4
f 115//12 127//12 128//12
f 112//12 124//12 130//12
f 114//11 126//11 125//11
f 117//5 120//5 132//5
