# Blender v2.91.2 OBJ File: ''
# www.blender.org
o fountain_Plane.006_Plane.007
v 0.096738 0.035002 0.000000
v 0.696737 -0.064998 -0.000000
v 0.096738 -0.064998 -0.000000
v 0.716737 0.035002 0.000000
v 0.696737 0.035002 0.000000
v 0.696737 0.185002 0.000000
v 0.076737 -0.064998 -0.000000
v 0.076737 0.185002 0.000000
v 0.076737 0.035002 0.000000
v 0.579230 0.035002 0.423205
v 0.219230 -0.064998 0.684761
v 0.579230 -0.064998 0.423205
v 0.563049 0.035002 0.411450
v 0.213049 0.185002 0.665740
v 0.563049 0.185002 0.411450
v 0.061459 -0.064998 0.047023
v 0.021459 0.035002 0.076085
v 0.061459 0.035002 0.047023
v 0.563049 -0.064998 0.411450
v 0.027639 -0.064998 0.095106
v 0.077639 -0.064998 0.058779
v 0.219230 0.185002 0.684761
v 0.579230 0.185002 0.423205
v 0.716737 0.185002 0.000000
v 0.716737 -0.064998 -0.000000
v 0.096738 0.185002 0.000000
v 0.061459 0.185002 0.047023
v 0.077639 0.185002 0.058779
v 0.077639 0.035002 0.058779
v 0.213049 0.035002 0.665739
v -0.219574 0.185002 0.665740
v 0.021459 -0.064998 0.076085
v -0.027984 0.035002 0.076085
v 0.213049 -0.064998 0.665739
v -0.034164 -0.064998 0.095106
v -0.225755 0.185002 0.684761
v -0.225755 0.035002 0.684761
v 0.219230 0.035002 0.684761
v 0.021459 0.185002 0.076085
v 0.027639 0.185002 0.095106
v 0.027639 0.035002 0.095106
v -0.219574 0.035002 0.665739
v -0.569574 0.185002 0.411450
v -0.027984 -0.064998 0.076085
v -0.067984 0.035002 0.047023
v -0.219574 -0.064998 0.665739
v -0.084164 -0.064998 0.058779
v -0.585755 0.185002 0.423205
v -0.585755 0.035002 0.423205
v -0.225755 -0.064998 0.684761
v -0.027984 0.185002 0.076085
v -0.034164 0.185002 0.095106
v -0.034164 0.035002 0.095106
v -0.569574 0.035002 0.411450
v -0.703263 0.185002 0.000000
v -0.067984 -0.064998 0.047023
v -0.083262 0.035002 0.000000
v -0.569574 -0.064998 0.411450
v -0.103262 -0.064998 -0.000000
v -0.723262 0.185002 0.000000
v -0.723262 0.035002 0.000000
v -0.585755 -0.064998 0.423205
v -0.084164 0.185002 0.058779
v -0.084164 0.035002 0.058779
v -0.067984 0.185002 0.047023
v -0.083262 -0.064998 -0.000000
v -0.067984 0.035002 -0.047023
v -0.703263 -0.064998 -0.000000
v -0.084164 -0.064998 -0.058778
v -0.585755 0.185002 -0.423205
v -0.585755 0.035002 -0.423205
v -0.067984 0.185002 -0.047023
v -0.083262 0.185002 0.000000
v -0.723262 -0.064998 -0.000000
v -0.103262 0.185002 0.000000
v -0.103262 0.035002 0.000000
v -0.703263 0.035002 0.000000
v -0.569574 -0.064998 -0.411450
v -0.034164 -0.064998 -0.095105
v -0.219574 0.185002 -0.665740
v -0.225755 0.185002 -0.684761
v -0.225755 0.035002 -0.684761
v -0.027984 0.185002 -0.076084
v -0.585755 -0.064998 -0.423205
v -0.219574 -0.064998 -0.665740
v -0.569574 0.185002 -0.411450
v -0.084164 0.185002 -0.058778
v -0.084164 0.035002 -0.058778
v -0.569574 0.035002 -0.411450
v -0.067984 -0.064998 -0.047023
v 0.219230 0.185002 -0.684761
v 0.219230 0.035002 -0.684761
v -0.027984 0.035002 -0.076084
v 0.021459 0.185002 -0.076085
v -0.225755 -0.064998 -0.684761
v 0.213049 -0.064998 -0.665739
v -0.034164 0.185002 -0.095105
v 0.027639 0.035002 -0.095106
v -0.034164 0.035002 -0.095105
v -0.219574 0.035002 -0.665740
v -0.027984 -0.064998 -0.076084
v 0.579230 0.035002 -0.423205
v 0.021459 0.035002 -0.076085
v 0.061459 0.185002 -0.047023
v 0.219230 -0.064998 -0.684761
v 0.563049 -0.064998 -0.411450
v 0.027639 0.185002 -0.095106
v 0.077639 0.035002 -0.058778
v 0.027639 -0.064998 -0.095106
v 0.061459 -0.064998 -0.047023
v 0.021459 -0.064998 -0.076085
v 0.213049 0.185002 -0.665739
v 0.213049 0.035002 -0.665739
v 0.061459 0.035002 -0.047023
v 0.076738 0.185002 0.000000
v 0.579230 -0.064998 -0.423205
v 0.696738 -0.064998 -0.000000
v 0.077639 0.185002 -0.058778
v 0.096737 0.035002 0.000000
v 0.077639 -0.064998 -0.058778
v 0.076738 -0.064998 -0.000000
v 0.696738 0.035002 0.000000
v 0.563049 0.035002 -0.411450
v 0.563049 0.185002 -0.411450
v 0.579230 0.185002 -0.423205
v 0.096737 -0.064998 -0.000000
v 0.716737 0.035002 0.000000
v 0.696738 0.185002 0.000000
v 0.076738 0.035002 0.000000
v 0.716737 0.185002 0.000000
v 0.716737 -0.064998 -0.000000
v 0.096737 0.185002 0.000000
vt 0.780743 0.603983
vt 0.780743 0.603983
vt 0.780743 0.603983
vt 0.780743 0.603983
vt 0.780743 0.603983
vt 0.780743 0.603983
vt 0.780743 0.603983
vt 0.780743 0.603983
vt 0.780743 0.603983
vt 0.780743 0.603983
vt 0.780743 0.603983
vt 0.780743 0.603983
vt 0.780743 0.603983
vt 0.780743 0.603983
vt 0.780743 0.603983
vt 0.785541 0.539431
vt 0.785541 0.539431
vt 0.785541 0.539431
vt 0.759383 0.142991
vt 0.559956 0.480519
vt 0.537055 0.448999
vt 0.780743 0.603983
vt 0.780743 0.603983
vt 0.780743 0.603983
vt 0.500000 0.058712
vt 0.500000 0.436959
vt 0.785541 0.539431
vt 0.785541 0.539431
vt 0.780743 0.603983
vt 0.785541 0.539431
vt 0.785541 0.539431
vt 0.785541 0.539431
vt 0.559956 0.519481
vt 0.919690 0.363635
vt 0.919689 0.636366
vt 0.529644 0.459199
vt 0.500000 0.449567
vt 0.780743 0.603983
vt 0.780743 0.603983
vt 0.766793 0.132790
vt 0.785541 0.539431
vt 0.780743 0.603983
vt 0.780743 0.603983
vt 0.780743 0.603983
vt 0.780743 0.603983
vt 0.780743 0.603983
vt 0.919690 0.363635
vt 0.559956 0.519481
vt 0.780743 0.603983
vt 0.780743 0.603983
vt 0.780743 0.603983
vt 0.785541 0.539431
vt 0.785541 0.539431
vt 0.537055 0.448998
vt 0.759383 0.142991
vt 0.547965 0.484415
vt 0.780743 0.603983
vt 0.780743 0.603983
vt 0.780743 0.603983
vt 0.780743 0.603983
vt 0.785541 0.539431
vt 0.785541 0.539431
vt 0.785541 0.539431
vt 0.919690 0.636365
vt 0.537055 0.551001
vt 0.780743 0.603983
vt 0.780743 0.603983
vt 0.780743 0.603983
vt 0.785541 0.539431
vt 0.785541 0.539431
vt 0.500001 0.058712
vt 0.547965 0.515585
vt 0.780743 0.603983
vt 0.780743 0.603983
vt 0.931681 0.359738
vt 0.780743 0.603983
vt 0.780743 0.603983
vt 0.780743 0.603983
vt 0.780743 0.603983
vt 0.785541 0.539431
vt 0.785541 0.539431
vt 0.759383 0.857009
vt 0.500000 0.563041
vt 0.780743 0.603983
vt 0.780743 0.603983
vt 0.780743 0.603983
vt 0.785541 0.539431
vt 0.462946 0.448998
vt 0.240618 0.142990
vt 0.529644 0.540801
vt 0.780743 0.603983
vt 0.780743 0.603983
vt 0.931681 0.640262
vt 0.785541 0.539431
vt 0.785541 0.539431
vt 0.785541 0.539431
vt 0.500000 0.941288
vt 0.462946 0.551001
vt 0.780743 0.603983
vt 0.780743 0.603983
vt 0.785541 0.539431
vt 0.785541 0.539431
vt 0.780743 0.603983
vt 0.785541 0.539431
vt 0.440045 0.480519
vt 0.080310 0.363634
vt 0.500000 0.550433
vt 0.780743 0.603983
vt 0.780743 0.603983
vt 0.766793 0.867210
vt 0.240617 0.857009
vt 0.440045 0.519481
vt 0.780743 0.603983
vt 0.780743 0.603983
vt 0.780743 0.603983
vt 0.785541 0.539431
vt 0.233207 0.867210
vt 0.080310 0.636365
vt 0.780743 0.603983
vt 0.780743 0.603983
vt 0.780743 0.603983
vt 0.785541 0.539431
vt 0.440044 0.519480
vt 0.080310 0.636365
vt 0.470356 0.540801
vt 0.780743 0.603983
vt 0.780743 0.603983
vt 0.780743 0.603983
vt 0.780743 0.603983
vt 0.785541 0.539431
vt 0.785541 0.539431
vt 0.068319 0.640262
vt 0.080310 0.363635
vt 0.780743 0.603983
vt 0.780743 0.603983
vt 0.780743 0.603983
vt 0.785541 0.539431
vt 0.780743 0.603983
vt 0.780743 0.603983
vt 0.785541 0.539431
vt 0.462946 0.551001
vt 0.240617 0.857010
vt 0.452036 0.515585
vt 0.780743 0.603983
vt 0.780743 0.603983
vt 0.785541 0.539431
vt 0.785541 0.539431
vt 0.068319 0.359738
vt 0.240617 0.142991
vt 0.780743 0.603983
vt 0.780743 0.603983
vt 0.440044 0.480519
vt 0.470356 0.459199
vt 0.452035 0.484415
vt 0.785541 0.539431
vt 0.780743 0.603983
vt 0.780743 0.603983
vt 0.780743 0.603983
vt 0.785541 0.539431
vt 0.500000 0.563041
vt 0.499999 0.941288
vt 0.780743 0.603983
vt 0.780743 0.603983
vt 0.780743 0.603983
vt 0.233207 0.132790
vt 0.500000 0.058711
vt 0.780743 0.603983
vt 0.780743 0.603983
vt 0.462946 0.448999
vt 0.500000 0.449567
vt 0.537055 0.551001
vt 0.919690 0.636366
vt 0.759382 0.857010
vt 0.780743 0.603983
vt 0.780743 0.603983
vt 0.785541 0.539431
vt 0.785541 0.539431
vt 0.780743 0.603983
vt 0.780743 0.603983
vt 0.785541 0.539431
vt 0.780743 0.603983
vt 0.780743 0.603983
vt 0.780743 0.603983
vt 0.780743 0.603983
vt 0.780743 0.603983
vt 0.780743 0.603983
vt 0.780743 0.603983
vt 0.780743 0.603983
vt 0.500000 0.436959
vt 0.780743 0.603983
vt 0.780743 0.603983
vt 0.780743 0.603983
vt 0.785541 0.539431
vt 0.785541 0.539431
vt 0.785541 0.539431
vt 0.559956 0.480519
vt 0.500000 0.046104
vt 0.780743 0.603983
vt 0.500000 0.436959
vt 0.500000 0.953896
vt 0.500000 0.046104
vt 0.780743 0.603983
vt 0.559955 0.519481
vt 0.785541 0.539431
vn 0.0000 0.0000 -1.0000
vn 0.5878 0.0000 0.8090
vn -0.5878 0.0000 -0.8090
vn 0.0000 -1.0000 -0.0000
vn 0.0000 1.0000 0.0000
vn 0.9511 -0.0000 0.3090
vn -0.9511 0.0000 -0.3090
vn 0.0000 -0.0000 1.0000
vn 0.5878 0.0000 -0.8090
vn -0.5878 -0.0000 0.8090
vn 0.9511 -0.0000 -0.3090
vn -0.9511 0.0000 0.3090
s 1
f 1/1/1 2/2/1 3/3/1
f 4/4/1 2/2/1 5/5/1
f 6/6/1 4/4/1 5/5/1
f 7/7/1 1/1/1 3/3/1
f 8/8/1 1/1/1 9/9/1
f 10/10/2 11/11/2 12/12/2
f 13/13/3 14/14/3 15/15/3
f 16/16/3 17/17/3 18/18/3
f 19/19/4 20/20/4 21/21/4
f 15/15/5 22/22/5 23/23/5
f 24/24/6 10/10/6 4/4/6
f 24/24/5 15/15/5 23/23/5
f 2/25/4 21/21/4 3/26/4
f 7/27/7 18/18/7 9/28/7
f 5/5/7 15/15/7 6/6/7
f 4/4/6 12/12/6 25/29/6
f 26/30/5 27/31/5 28/32/5
f 1/33/5 13/34/5 5/35/5
f 3/26/4 16/36/4 7/37/4
f 26/38/6 29/39/6 1/1/6
f 2/25/4 12/40/4 19/19/4
f 9/28/7 27/31/7 8/41/7
f 30/42/1 31/43/1 14/14/1
f 32/44/1 33/45/1 17/46/1
f 34/47/4 35/48/4 20/20/4
f 22/22/5 31/43/5 36/49/5
f 22/22/8 37/50/8 38/51/8
f 28/32/5 39/52/5 40/53/5
f 13/34/5 41/54/5 30/55/5
f 21/21/4 32/56/4 16/36/4
f 28/57/2 41/58/2 29/39/2
f 12/40/4 34/47/4 19/19/4
f 18/18/3 39/52/3 27/31/3
f 23/23/2 38/51/2 10/10/2
f 42/59/9 43/60/9 31/43/9
f 44/61/9 45/62/9 33/63/9
f 46/64/4 47/65/4 35/48/4
f 36/49/5 43/60/5 48/66/5
f 36/49/10 49/67/10 37/50/10
f 38/51/8 50/68/8 11/11/8
f 40/53/5 51/69/5 52/70/5
f 41/54/5 42/71/5 30/55/5
f 20/20/4 44/72/4 32/56/4
f 40/73/8 53/74/8 41/58/8
f 11/75/4 46/64/4 34/47/4
f 17/46/1 51/76/1 39/77/1
f 54/78/11 55/79/11 43/60/11
f 56/80/11 57/81/11 45/62/11
f 58/82/4 59/83/4 47/65/4
f 48/66/5 55/79/5 60/84/5
f 48/66/12 61/85/12 49/67/12
f 37/50/10 62/86/10 50/68/10
f 51/69/5 63/87/5 52/70/5
f 42/71/5 64/88/5 54/89/5
f 44/72/4 47/65/4 56/90/4
f 52/91/10 64/92/10 53/74/10
f 50/93/4 58/82/4 46/64/4
f 33/63/9 65/94/9 51/69/9
f 66/95/6 67/96/6 57/81/6
f 68/97/4 69/98/4 59/83/4
f 55/79/5 70/99/5 60/84/5
f 60/84/7 71/100/7 61/85/7
f 57/81/6 72/101/6 73/102/6
f 49/67/12 74/103/12 62/86/12
f 65/94/5 75/104/5 63/87/5
f 54/89/5 76/105/5 77/106/5
f 56/90/4 59/83/4 66/107/4
f 63/108/12 76/109/12 64/92/12
f 62/110/4 68/97/4 58/82/4
f 45/62/11 73/102/11 65/94/11
f 78/111/4 79/112/4 69/98/4
f 70/99/5 80/113/5 81/114/5
f 70/99/3 82/115/3 71/100/3
f 67/96/2 83/116/2 72/101/2
f 84/117/4 85/118/4 78/111/4
f 77/119/6 86/120/6 55/79/6
f 61/85/7 84/121/7 74/103/7
f 73/102/5 87/122/5 75/104/5
f 77/106/5 88/123/5 89/124/5
f 66/107/4 69/98/4 90/125/4
f 75/126/7 88/127/7 76/109/7
f 68/97/4 84/117/4 78/111/4
f 80/113/5 91/128/5 81/114/5
f 81/114/1 92/129/1 82/115/1
f 93/130/8 94/131/8 83/116/8
f 95/132/4 96/133/4 85/118/4
f 97/134/1 98/135/1 99/136/1
f 90/137/2 93/130/2 67/96/2
f 89/138/2 80/113/2 86/120/2
f 71/100/3 95/139/3 84/121/3
f 72/101/5 97/140/5 87/122/5
f 89/124/5 99/141/5 100/142/5
f 90/125/4 79/112/4 101/143/4
f 87/144/3 99/136/3 88/127/3
f 91/128/9 102/145/9 92/129/9
f 103/146/10 104/147/10 94/131/10
f 105/148/4 106/149/4 96/133/4
f 107/150/9 108/151/9 98/135/9
f 109/152/4 110/153/4 111/154/4
f 85/118/4 109/152/4 79/112/4
f 101/155/8 103/146/8 93/130/8
f 100/156/8 112/157/8 80/113/8
f 82/115/1 105/158/1 95/139/1
f 83/116/5 107/159/5 97/140/5
f 100/142/5 98/160/5 113/161/5
f 101/143/4 109/152/4 111/154/4
f 114/162/12 115/163/12 104/164/12
f 116/165/4 117/166/4 106/149/4
f 118/167/11 119/168/11 108/151/11
f 120/169/4 121/170/4 110/153/4
f 108/171/5 122/172/5 123/173/5
f 91/128/5 124/174/5 125/175/5
f 96/133/4 120/169/4 109/152/4
f 111/176/10 114/177/10 103/146/10
f 113/178/10 124/174/10 112/157/10
f 92/129/9 116/179/9 105/158/9
f 107/159/5 104/147/5 118/180/5
f 113/161/5 108/171/5 123/173/5
f 117/181/8 119/168/8 126/182/8
f 117/181/8 127/183/8 122/184/8
f 127/183/8 128/185/8 122/184/8
f 119/168/8 121/186/8 126/182/8
f 119/168/8 115/163/8 129/187/8
f 125/175/11 127/183/11 102/145/11
f 124/174/5 130/188/5 125/175/5
f 106/149/4 126/189/4 120/169/4
f 110/190/12 129/187/12 114/162/12
f 123/191/12 128/185/12 124/174/12
f 102/145/11 131/192/11 116/179/11
f 118/180/5 115/193/5 132/194/5
f 1/1/1 5/5/1 2/2/1
f 4/4/1 25/29/1 2/2/1
f 6/6/1 24/24/1 4/4/1
f 7/7/1 9/9/1 1/1/1
f 8/8/1 26/38/1 1/1/1
f 10/10/2 38/51/2 11/11/2
f 13/13/3 30/42/3 14/14/3
f 16/16/3 32/195/3 17/17/3
f 19/19/4 34/47/4 20/20/4
f 15/15/5 14/14/5 22/22/5
f 24/24/6 23/23/6 10/10/6
f 24/24/5 6/6/5 15/15/5
f 2/25/4 19/19/4 21/21/4
f 7/27/7 16/16/7 18/18/7
f 5/5/7 13/13/7 15/15/7
f 4/4/6 10/10/6 12/12/6
f 26/30/5 8/41/5 27/31/5
f 1/33/5 29/196/5 13/34/5
f 3/26/4 21/21/4 16/36/4
f 26/38/6 28/57/6 29/39/6
f 2/25/4 25/197/4 12/40/4
f 9/28/7 18/18/7 27/31/7
f 30/42/1 42/59/1 31/43/1
f 32/44/1 44/198/1 33/45/1
f 34/47/4 46/64/4 35/48/4
f 22/22/5 14/14/5 31/43/5
f 22/22/8 36/49/8 37/50/8
f 28/32/5 27/31/5 39/52/5
f 13/34/5 29/196/5 41/54/5
f 21/21/4 20/20/4 32/56/4
f 28/57/2 40/73/2 41/58/2
f 12/40/4 11/75/4 34/47/4
f 18/18/3 17/17/3 39/52/3
f 23/23/2 22/22/2 38/51/2
f 42/59/9 54/78/9 43/60/9
f 44/61/9 56/80/9 45/62/9
f 46/64/4 58/82/4 47/65/4
f 36/49/5 31/43/5 43/60/5
f 36/49/10 48/66/10 49/67/10
f 38/51/8 37/50/8 50/68/8
f 40/53/5 39/52/5 51/69/5
f 41/54/5 53/199/5 42/71/5
f 20/20/4 35/48/4 44/72/4
f 40/73/8 52/91/8 53/74/8
f 11/75/4 50/93/4 46/64/4
f 17/46/1 33/45/1 51/76/1
f 54/78/11 77/119/11 55/79/11
f 56/80/11 66/95/11 57/81/11
f 58/82/4 68/97/4 59/83/4
f 48/66/5 43/60/5 55/79/5
f 48/66/12 60/84/12 61/85/12
f 37/50/10 49/67/10 62/86/10
f 51/69/5 65/94/5 63/87/5
f 42/71/5 53/199/5 64/88/5
f 44/72/4 35/48/4 47/65/4
f 52/91/10 63/108/10 64/92/10
f 50/93/4 62/110/4 58/82/4
f 33/63/9 45/62/9 65/94/9
f 66/95/6 90/137/6 67/96/6
f 68/97/4 78/111/4 69/98/4
f 55/79/5 86/120/5 70/99/5
f 60/84/7 70/99/7 71/100/7
f 57/81/6 67/96/6 72/101/6
f 49/67/12 61/85/12 74/103/12
f 65/94/5 73/102/5 75/104/5
f 54/89/5 64/88/5 76/105/5
f 56/90/4 47/65/4 59/83/4
f 63/108/12 75/126/12 76/109/12
f 62/110/4 74/200/4 68/97/4
f 45/62/11 57/81/11 73/102/11
f 78/111/4 85/118/4 79/112/4
f 70/99/5 86/120/5 80/113/5
f 70/99/3 81/114/3 82/115/3
f 67/96/2 93/130/2 83/116/2
f 84/117/4 95/132/4 85/118/4
f 77/119/6 89/138/6 86/120/6
f 61/85/7 71/100/7 84/121/7
f 73/102/5 72/101/5 87/122/5
f 77/106/5 76/105/5 88/123/5
f 66/107/4 59/83/4 69/98/4
f 75/126/7 87/144/7 88/127/7
f 68/97/4 74/200/4 84/117/4
f 80/113/5 112/157/5 91/128/5
f 81/114/1 91/128/1 92/129/1
f 93/130/8 103/146/8 94/131/8
f 95/132/4 105/148/4 96/133/4
f 97/134/1 107/150/1 98/135/1
f 90/137/2 101/155/2 93/130/2
f 89/138/2 100/156/2 80/113/2
f 71/100/3 82/115/3 95/139/3
f 72/101/5 83/116/5 97/140/5
f 89/124/5 88/123/5 99/141/5
f 90/125/4 69/98/4 79/112/4
f 87/144/3 97/134/3 99/136/3
f 91/128/9 125/175/9 102/145/9
f 103/146/10 114/177/10 104/147/10
f 105/148/4 116/165/4 106/149/4
f 107/150/9 118/167/9 108/151/9
f 109/152/4 120/169/4 110/153/4
f 85/118/4 96/133/4 109/152/4
f 101/155/8 111/176/8 103/146/8
f 100/156/8 113/178/8 112/157/8
f 82/115/1 92/129/1 105/158/1
f 83/116/5 94/131/5 107/159/5
f 100/142/5 99/141/5 98/160/5
f 101/143/4 79/112/4 109/152/4
f 114/162/12 129/187/12 115/163/12
f 116/165/4 131/201/4 117/166/4
f 118/167/11 132/202/11 119/168/11
f 120/169/4 126/189/4 121/170/4
f 108/171/5 119/203/5 122/172/5
f 91/128/5 112/157/5 124/174/5
f 96/133/4 106/149/4 120/169/4
f 111/176/10 110/204/10 114/177/10
f 113/178/10 123/191/10 124/174/10
f 92/129/9 102/145/9 116/179/9
f 107/159/5 94/131/5 104/147/5
f 113/161/5 98/160/5 108/171/5
f 117/181/8 122/184/8 119/168/8
f 117/181/8 131/192/8 127/183/8
f 127/183/8 130/188/8 128/185/8
f 119/168/8 129/187/8 121/186/8
f 119/168/8 132/202/8 115/163/8
f 125/175/11 130/188/11 127/183/11
f 124/174/5 128/185/5 130/188/5
f 106/149/4 117/166/4 126/189/4
f 110/190/12 121/186/12 129/187/12
f 123/191/12 122/184/12 128/185/12
f 102/145/11 127/183/11 131/192/11
f 118/180/5 104/147/5 115/193/5
