# Blender v2.91.2 OBJ File: ''
# www.blender.org
mtllib tileBrickB_medium.mtl
o tileBrickB_medium_Cube.3227
v 2.000000 0.050000 2.000000
v 2.000000 0.950000 2.000000
v 0.000000 0.950000 2.000000
v 0.000000 0.050000 2.000000
v 2.000000 0.050000 0.000000
v 2.000000 0.950000 0.000000
v -1.950000 0.000000 -1.950000
v -0.050000 0.000000 -1.950000
v -0.050000 0.000000 -0.050000
v -1.950000 0.000000 -0.050000
v 1.950000 1.000000 0.050000
v 0.050000 1.000000 0.050000
v 0.050000 1.000000 1.950000
v 1.950000 1.000000 1.950000
v 0.000000 0.950000 0.000000
v 0.000000 0.050000 0.000000
v -2.000000 0.950000 0.000000
v -2.000000 0.050000 0.000000
v 0.000000 0.050000 -2.000000
v 0.000000 0.950000 -2.000000
v 0.050000 0.000000 -1.950000
v 1.950000 0.000000 -1.950000
v 1.950000 0.000000 -0.050000
v 0.050000 0.000000 -0.050000
v -0.050000 1.000000 -1.950000
v -1.950000 1.000000 -1.950000
v -1.950000 1.000000 -0.050000
v -0.050000 1.000000 -0.050000
v -2.000000 0.950000 -2.000000
v -2.000000 0.050000 -2.000000
v 2.000000 0.050000 -2.000000
v 2.000000 0.950000 -2.000000
v -1.950000 -0.000000 0.050000
v -0.050000 -0.000000 0.050000
v -0.050000 -0.000000 1.950000
v -1.950000 -0.000000 1.950000
v 1.950000 1.000000 -1.950000
v 0.050000 1.000000 -1.950000
v 0.050000 1.000000 -0.050000
v 1.950000 1.000000 -0.050000
v -2.000000 0.950000 2.000000
v -2.000000 0.050000 2.000000
v -0.050000 1.000000 0.050000
v -1.950000 1.000000 0.050000
v -1.950000 1.000000 1.950000
v -0.050000 1.000000 1.950000
v 0.050000 -0.000000 0.050000
v 0.050000 -0.000000 1.950000
v 0.014645 0.014645 1.985355
v 0.014645 0.014645 0.014645
v 0.014645 0.985355 0.014645
v 0.014645 0.985355 1.985355
v 1.950000 -0.000000 0.050000
v 1.985355 0.014645 0.014645
v 1.985355 0.985355 0.014645
v 1.950000 -0.000000 1.950000
v 1.985355 0.014645 1.985355
v 1.985355 0.985355 1.985355
v -1.985355 0.014645 -0.014645
v -1.985355 0.014645 -1.985355
v -1.985355 0.985355 -1.985355
v -1.985355 0.985355 -0.014645
v -0.014645 0.014645 -1.985355
v -0.014645 0.985355 -1.985355
v -0.014645 0.014645 -0.014645
v -0.014645 0.985355 -0.014645
v 0.014645 0.014645 -0.014645
v 0.014645 0.014645 -1.985355
v 0.014645 0.985355 -1.985355
v 0.014645 0.985355 -0.014645
v 1.985355 0.014645 -1.985355
v 1.985355 0.985355 -1.985355
v 1.985355 0.014645 -0.014645
v 1.985355 0.985355 -0.014645
v -1.985355 0.014645 1.985355
v -1.985355 0.014645 0.014645
v -1.985355 0.985355 0.014645
v -1.985355 0.985355 1.985355
v -0.014645 0.014645 0.014645
v -0.014645 0.985355 0.014645
v -0.014645 0.014645 1.985355
v -0.014645 0.985355 1.985355
vt 0.612500 0.750000
vt 0.387500 1.000000
vt 0.387500 0.750000
vt 0.612500 0.500000
vt 0.387500 0.500000
vt 0.368750 0.506250
vt 0.131250 0.743750
vt 0.131250 0.506250
vt 0.868750 0.506250
vt 0.631250 0.743750
vt 0.631250 0.506250
vt 0.612500 0.000000
vt 0.387500 0.250000
vt 0.387500 0.000000
vt 0.612500 0.250000
vt 0.612500 0.750000
vt 0.387500 1.000000
vt 0.387500 0.750000
vt 0.612500 0.500000
vt 0.387500 0.500000
vt 0.368750 0.506250
vt 0.131250 0.743750
vt 0.131250 0.506250
vt 0.868750 0.506250
vt 0.631250 0.743750
vt 0.631250 0.506250
vt 0.612500 0.000000
vt 0.387500 0.250000
vt 0.387500 0.000000
vt 0.612500 0.250000
vt 0.612500 0.500000
vt 0.387500 0.750000
vt 0.387500 0.500000
vt 0.368750 0.506250
vt 0.131250 0.743750
vt 0.131250 0.506250
vt 0.868750 0.506250
vt 0.631250 0.743750
vt 0.631250 0.506250
vt 0.612500 0.250000
vt 0.387500 0.250000
vt 0.612500 0.750000
vt 0.387500 1.000000
vt 0.387500 0.750000
vt 0.868750 0.506250
vt 0.631250 0.743750
vt 0.631250 0.506250
vt 0.612500 0.000000
vt 0.387500 0.250000
vt 0.387500 0.000000
vt 0.131250 0.743750
vt 0.125000 0.501831
vt 0.131250 0.506250
vt 0.375000 0.001831
vt 0.375000 0.248169
vt 0.875000 0.748169
vt 0.868750 0.743750
vt 0.625000 0.248169
vt 0.625000 0.001831
vt 0.373169 0.500000
vt 0.368750 0.506250
vt 0.375000 0.251831
vt 0.375000 0.498169
vt 0.873169 0.500000
vt 0.625000 0.498169
vt 0.625000 0.251831
vt 0.375000 0.748169
vt 0.368750 0.743750
vt 0.375000 0.501831
vt 0.625000 0.501831
vt 0.625000 0.748169
vt 0.126831 0.750000
vt 0.375000 0.751831
vt 0.375000 0.998169
vt 0.626831 0.750000
vt 0.625000 0.998169
vt 0.625000 0.751831
vt 0.125000 0.501831
vt 0.375000 0.001831
vt 0.375000 0.248169
vt 0.875000 0.748169
vt 0.868750 0.743750
vt 0.625000 0.248169
vt 0.625000 0.001831
vt 0.373169 0.500000
vt 0.375000 0.251831
vt 0.375000 0.498169
vt 0.873169 0.500000
vt 0.625000 0.498169
vt 0.625000 0.251831
vt 0.375000 0.748169
vt 0.368750 0.743750
vt 0.375000 0.501831
vt 0.625000 0.501831
vt 0.625000 0.748169
vt 0.126831 0.750000
vt 0.375000 0.751831
vt 0.375000 0.998169
vt 0.626831 0.750000
vt 0.625000 0.998169
vt 0.625000 0.751831
vt 0.125000 0.501831
vt 0.375000 0.001831
vt 0.375000 0.248169
vt 0.875000 0.748169
vt 0.868750 0.743750
vt 0.625000 0.248169
vt 0.612500 0.000000
vt 0.625000 0.001831
vt 0.373169 0.500000
vt 0.375000 0.251831
vt 0.375000 0.498169
vt 0.873169 0.500000
vt 0.625000 0.498169
vt 0.625000 0.251831
vt 0.375000 0.748169
vt 0.368750 0.743750
vt 0.375000 0.501831
vt 0.625000 0.501831
vt 0.625000 0.748169
vt 0.126831 0.750000
vt 0.375000 0.751831
vt 0.387500 1.000000
vt 0.375000 0.998169
vt 0.626831 0.750000
vt 0.625000 0.998169
vt 0.612500 0.750000
vt 0.625000 0.751831
vt 0.125000 0.501831
vt 0.375000 0.001831
vt 0.375000 0.248169
vt 0.875000 0.748169
vt 0.868750 0.743750
vt 0.625000 0.248169
vt 0.625000 0.001831
vt 0.373169 0.500000
vt 0.375000 0.251831
vt 0.387500 0.500000
vt 0.375000 0.498169
vt 0.873169 0.500000
vt 0.625000 0.498169
vt 0.612500 0.250000
vt 0.625000 0.251831
vt 0.375000 0.748169
vt 0.368750 0.743750
vt 0.375000 0.501831
vt 0.625000 0.501831
vt 0.625000 0.748169
vt 0.612500 0.500000
vt 0.126831 0.750000
vt 0.375000 0.751831
vt 0.375000 0.998169
vt 0.626831 0.750000
vt 0.625000 0.998169
vt 0.625000 0.751831
vt 0.612500 1.000000
vt 0.612500 1.000000
vt 0.612500 1.000000
vt 0.125000 0.748169
vt 0.875000 0.501831
vt 0.126831 0.500000
vt 0.626831 0.500000
vt 0.373169 0.750000
vt 0.873169 0.750000
vt 0.125000 0.748169
vt 0.875000 0.501831
vt 0.126831 0.500000
vt 0.626831 0.500000
vt 0.373169 0.750000
vt 0.873169 0.750000
vt 0.125000 0.748169
vt 0.387500 0.000000
vt 0.875000 0.501831
vt 0.126831 0.500000
vt 0.626831 0.500000
vt 0.373169 0.750000
vt 0.873169 0.750000
vt 0.612500 1.000000
vt 0.125000 0.748169
vt 0.875000 0.501831
vt 0.126831 0.500000
vt 0.626831 0.500000
vt 0.373169 0.750000
vt 0.873169 0.750000
vn 0.0000 -0.0000 1.0000
vn 1.0000 0.0000 0.0000
vn 0.0000 -1.0000 -0.0000
vn 0.0000 1.0000 0.0000
vn -1.0000 0.0000 0.0000
vn 0.0000 0.0000 -1.0000
vn -0.3827 -0.9239 -0.0000
vn -0.9239 -0.3827 -0.0000
vn -0.3827 0.9239 0.0000
vn -0.9239 0.3827 0.0000
vn 0.0000 -0.9239 -0.3827
vn 0.0000 -0.3827 -0.9239
vn 0.0000 0.9239 -0.3827
vn 0.0000 0.3827 -0.9239
vn 0.3827 -0.9239 -0.0000
vn 0.9239 -0.3827 -0.0000
vn 0.3827 0.9239 0.0000
vn 0.9239 0.3827 0.0000
vn 0.0000 -0.9239 0.3827
vn 0.0000 -0.3827 0.9239
vn 0.0000 0.9239 0.3827
vn 0.0000 0.3827 0.9239
usemtl Stone.008
s 1
f 2/1/1 4/2/1 1/3/1
f 6/4/2 1/3/2 5/5/2
f 8/6/3 10/7/3 7/8/3
f 12/9/4 14/10/4 11/11/4
f 3/12/5 16/13/5 4/14/5
f 15/15/6 5/5/6 16/13/6
f 15/16/1 18/17/1 16/18/1
f 20/19/2 16/18/2 19/20/2
f 22/21/3 24/22/3 21/23/3
f 26/24/4 28/25/4 25/26/4
f 17/27/5 30/28/5 18/29/5
f 29/30/6 19/20/6 30/28/6
f 32/31/2 5/32/2 31/33/2
f 34/34/3 36/35/3 33/36/3
f 38/37/4 40/38/4 37/39/4
f 20/40/6 31/33/6 19/41/6
f 3/42/1 42/43/1 4/44/1
f 44/45/4 46/46/4 43/47/4
f 41/48/5 18/49/5 42/50/5
f 48/51/7 50/52/7 47/53/7
f 49/54/8 16/13/8 50/55/8
f 12/9/9 52/56/9 13/57/9
f 51/58/10 3/12/10 52/59/10
f 47/53/11 54/60/11 53/61/11
f 50/62/12 5/5/12 54/63/12
f 11/11/13 51/64/13 12/9/13
f 55/65/14 15/15/14 51/66/14
f 53/61/15 57/67/15 56/68/15
f 54/69/16 1/3/16 57/67/16
f 14/10/17 55/70/17 11/11/17
f 58/71/18 6/4/18 55/70/18
f 56/68/19 49/72/19 48/51/19
f 57/73/20 4/2/20 49/74/20
f 13/57/21 58/75/21 14/10/21
f 52/76/22 2/1/22 58/77/22
f 10/7/7 60/78/7 7/8/7
f 59/79/8 30/28/8 60/80/8
f 26/24/9 62/81/9 27/82/9
f 61/83/10 17/27/10 62/84/10
f 7/8/11 63/85/11 8/6/11
f 60/86/12 19/20/12 63/87/12
f 25/26/13 61/88/13 26/24/13
f 64/89/14 29/30/14 61/90/14
f 8/6/15 65/91/15 9/92/15
f 63/93/16 16/18/16 65/91/16
f 28/25/17 64/94/17 25/26/17
f 66/95/18 20/19/18 64/94/18
f 9/92/19 59/96/19 10/7/19
f 65/97/20 18/17/20 59/98/20
f 27/82/21 66/99/21 28/25/21
f 62/100/22 15/16/22 66/101/22
f 24/22/7 68/102/7 21/23/7
f 67/103/8 19/41/8 68/104/8
f 38/37/9 70/105/9 39/106/9
f 69/107/10 15/108/10 70/109/10
f 21/23/11 71/110/11 22/21/11
f 68/111/12 31/33/12 71/112/12
f 37/39/13 69/113/13 38/37/13
f 72/114/14 20/40/14 69/115/14
f 22/21/15 73/116/15 23/117/15
f 71/118/16 5/32/16 73/116/16
f 40/38/17 72/119/17 37/39/17
f 74/120/18 32/31/18 72/119/18
f 23/117/19 67/121/19 24/22/19
f 73/122/20 16/123/20 67/124/20
f 39/106/21 74/125/21 40/38/21
f 70/126/22 6/127/22 74/128/22
f 36/35/7 76/129/7 33/36/7
f 75/130/8 18/49/8 76/131/8
f 44/45/9 78/132/9 45/133/9
f 77/134/10 41/48/10 78/135/10
f 33/36/11 79/136/11 34/34/11
f 76/137/12 16/138/12 79/139/12
f 43/47/13 77/140/13 44/45/13
f 80/141/14 17/142/14 77/143/14
f 34/34/15 81/144/15 35/145/15
f 79/146/16 4/44/16 81/144/16
f 46/46/17 80/147/17 43/47/17
f 82/148/18 15/149/18 80/147/18
f 35/145/19 75/150/19 36/35/19
f 81/151/20 42/43/20 75/152/20
f 45/133/21 82/153/21 46/46/21
f 78/154/22 3/42/22 82/155/22
f 53/61/3 48/51/3 47/53/3
f 2/1/1 3/156/1 4/2/1
f 6/4/2 2/1/2 1/3/2
f 8/6/3 9/92/3 10/7/3
f 12/9/4 13/57/4 14/10/4
f 3/12/5 15/15/5 16/13/5
f 15/15/6 6/4/6 5/5/6
f 15/16/1 17/157/1 18/17/1
f 20/19/2 15/16/2 16/18/2
f 22/21/3 23/117/3 24/22/3
f 26/24/4 27/82/4 28/25/4
f 17/27/5 29/30/5 30/28/5
f 29/30/6 20/19/6 19/20/6
f 32/31/2 6/127/2 5/32/2
f 34/34/3 35/145/3 36/35/3
f 38/37/4 39/106/4 40/38/4
f 20/40/6 32/31/6 31/33/6
f 3/42/1 41/158/1 42/43/1
f 44/45/4 45/133/4 46/46/4
f 41/48/5 17/142/5 18/49/5
f 48/51/7 49/159/7 50/52/7
f 49/54/8 4/14/8 16/13/8
f 12/9/9 51/160/9 52/56/9
f 51/58/10 15/15/10 3/12/10
f 47/53/11 50/161/11 54/60/11
f 50/62/12 16/13/12 5/5/12
f 11/11/13 55/162/13 51/64/13
f 55/65/14 6/4/14 15/15/14
f 53/61/15 54/69/15 57/67/15
f 54/69/16 5/5/16 1/3/16
f 14/10/17 58/71/17 55/70/17
f 58/71/18 2/1/18 6/4/18
f 56/68/19 57/163/19 49/72/19
f 57/73/20 1/3/20 4/2/20
f 13/57/21 52/164/21 58/75/21
f 52/76/22 3/156/22 2/1/22
f 10/7/7 59/165/7 60/78/7
f 59/79/8 18/29/8 30/28/8
f 26/24/9 61/166/9 62/81/9
f 61/83/10 29/30/10 17/27/10
f 7/8/11 60/167/11 63/85/11
f 60/86/12 30/28/12 19/20/12
f 25/26/13 64/168/13 61/88/13
f 64/89/14 20/19/14 29/30/14
f 8/6/15 63/93/15 65/91/15
f 63/93/16 19/20/16 16/18/16
f 28/25/17 66/95/17 64/94/17
f 66/95/18 15/16/18 20/19/18
f 9/92/19 65/169/19 59/96/19
f 65/97/20 16/18/20 18/17/20
f 27/82/21 62/170/21 66/99/21
f 62/100/22 17/157/22 15/16/22
f 24/22/7 67/171/7 68/102/7
f 67/103/8 16/172/8 19/41/8
f 38/37/9 69/173/9 70/105/9
f 69/107/10 20/40/10 15/108/10
f 21/23/11 68/174/11 71/110/11
f 68/111/12 19/41/12 31/33/12
f 37/39/13 72/175/13 69/113/13
f 72/114/14 32/31/14 20/40/14
f 22/21/15 71/118/15 73/116/15
f 71/118/16 31/33/16 5/32/16
f 40/38/17 74/120/17 72/119/17
f 74/120/18 6/127/18 32/31/18
f 23/117/19 73/176/19 67/121/19
f 73/122/20 5/32/20 16/123/20
f 39/106/21 70/177/21 74/125/21
f 70/126/22 15/178/22 6/127/22
f 36/35/7 75/179/7 76/129/7
f 75/130/8 42/50/8 18/49/8
f 44/45/9 77/180/9 78/132/9
f 77/134/10 17/142/10 41/48/10
f 33/36/11 76/181/11 79/136/11
f 76/137/12 18/49/12 16/138/12
f 43/47/13 80/182/13 77/140/13
f 80/141/14 15/149/14 17/142/14
f 34/34/15 79/146/15 81/144/15
f 79/146/16 16/138/16 4/44/16
f 46/46/17 82/148/17 80/147/17
f 82/148/18 3/42/18 15/149/18
f 35/145/19 81/183/19 75/150/19
f 81/151/20 4/44/20 42/43/20
f 45/133/21 78/184/21 82/153/21
f 78/154/22 41/158/22 3/42/22
f 53/61/3 56/68/3 48/51/3
